<svg  viewBox="0 0 75 50" fill="none" xmlns="http://www.w3.org/2000/svg">
<rect x="13.4328" width="61.5672" height="36.9403" rx="4" fill="white"/>
<rect x="13.4328" y="7.83594" width="61.5672" height="5.59702" fill="#333333"/>
<circle cx="57.6492" cy="28.5448" r="2.79851" fill="#333333"/>
<ellipse cx="62.1269" cy="28.5448" rx="2.79851" ry="2.79851" fill="#333333"/>
<circle cx="15.1119" cy="34.1417" r="15.1119" fill="#7CD708"/>
<path d="M5.26914 35.5161C4.83198 35.079 4.83198 34.3702 5.26914 33.9331C5.70629 33.4959 6.41506 33.4959 6.85221 33.9331L13.976 41.0569L13.8072 41.2258C13.0261 42.0068 11.7598 42.0068 10.9788 41.2258L5.26914 35.5161Z" fill="white"/>
<path d="M13.976 41.0569L12.393 39.4738L23.4745 28.3923C23.9116 27.9551 24.6204 27.9551 25.0576 28.3923C25.4947 28.8294 25.4947 29.5382 25.0576 29.9754L13.976 41.0569Z" fill="white"/>
</svg>
