<svg aria-hidden="true" style="position: absolute; width: 0; height: 0; overflow: hidden;" version="1.1" xmlns="http://www.w3.org/2000/svg" xmlns:xlink="http://www.w3.org/1999/xlink">
<defs>
<symbol id="icon-car" viewBox="0 0 57 32">
<path fill="none" stroke="#fff" style="stroke: var(--color1, #fff)" stroke-linejoin="miter" stroke-linecap="butt" stroke-miterlimit="4" stroke-width="1.5238" d="M0.762 0.762h39.029v24.359h-23.652c-0.552-1.083-1.436-1.961-2.523-2.506-1.609-0.807-3.504-0.807-5.112 0-1.087 0.545-1.971 1.424-2.523 2.506h-5.218v-24.359z"></path>
<path fill="#fff" style="fill: var(--color1, #fff)" d="M14.746 27.731c0 2.042-1.651 3.698-3.687 3.698s-3.687-1.655-3.687-3.698 1.651-3.697 3.687-3.697c2.036 0 3.687 1.655 3.687 3.697zM9.217 27.731c0 1.021 0.825 1.849 1.843 1.849s1.843-0.828 1.843-1.849c0-1.021-0.825-1.849-1.843-1.849s-1.843 0.828-1.843 1.849z"></path>
<path fill="#fff" style="fill: var(--color1, #fff)" d="M53.456 27.731c0 2.042-1.651 3.698-3.687 3.698s-3.687-1.655-3.687-3.698c0-2.042 1.651-3.697 3.687-3.697s3.687 1.655 3.687 3.697zM47.926 27.731c0 1.021 0.825 1.849 1.843 1.849s1.843-0.828 1.843-1.849c0-1.021-0.825-1.849-1.843-1.849s-1.843 0.828-1.843 1.849z"></path>
<path fill="none" stroke="#fff" style="stroke: var(--color1, #fff)" stroke-linejoin="miter" stroke-linecap="butt" stroke-miterlimit="4" stroke-width="1.5238" d="M43.158 4.459h6.203l7.020 10.561v10.1h-1.532c-0.552-1.083-1.436-1.961-2.523-2.506-1.609-0.807-3.504-0.807-5.112 0-1.087 0.545-1.971 1.424-2.523 2.506h-1.532v-20.661z"></path>
<path fill="#fff" style="fill: var(--color1, #fff)" d="M45.714 8.381c0-0.421 0.341-0.762 0.762-0.762h1.673c0.263 0 0.507 0.135 0.646 0.358l3.81 6.095c0.317 0.508-0.048 1.166-0.646 1.166h-5.483c-0.421 0-0.762-0.341-0.762-0.762v-6.095z"></path>
<path fill="#fff" style="fill: var(--color1, #fff)" d="M15.090 12.563c-1.496-1.496-1.496-3.922 0-5.418s3.922-1.496 5.418 0l6.192 6.192-5.418 5.418-6.192-6.192z"></path>
<path fill="#fff" style="fill: var(--color1, #fff)" d="M22.056 7.144c1.496-1.496 3.922-1.496 5.418 0s1.496 3.922 0 5.418l-6.192 6.192-5.418-5.418 6.192-6.192z"></path>
</symbol>
<symbol id="icon-card" viewBox="0 0 48 32">
<path fill="#fff" style="fill: var(--color1, #fff)" d="M11.157 0h34.283c1.414 0 2.56 1.146 2.56 2.56v18.522c0 1.414-1.146 2.56-2.56 2.56h-34.283c-1.414 0-2.56-1.146-2.56-2.56v-18.522c0-1.414 1.146-2.56 2.56-2.56z"></path>
<path fill="#333" style="fill: var(--color2, #333)" d="M8.597 5.015h39.403v3.582h-39.403v-3.582z"></path>
<path fill="#333" style="fill: var(--color2, #333)" d="M38.687 18.269c0 0.989-0.802 1.791-1.791 1.791s-1.791-0.802-1.791-1.791c0-0.989 0.802-1.791 1.791-1.791s1.791 0.802 1.791 1.791z"></path>
<path fill="#333" style="fill: var(--color2, #333)" d="M41.552 18.269c0 0.989-0.802 1.791-1.791 1.791s-1.791-0.802-1.791-1.791c0-0.989 0.802-1.791 1.791-1.791s1.791 0.802 1.791 1.791z"></path>
<path fill="#7cd708" style="fill: var(--color3, #7cd708)" d="M19.343 21.851c0 5.341-4.33 9.672-9.672 9.672s-9.672-4.33-9.672-9.672c0-5.341 4.33-9.672 9.672-9.672s9.672 4.33 9.672 9.672z"></path>
<path fill="#fff" style="fill: var(--color1, #fff)" d="M3.372 22.73c-0.28-0.28-0.28-0.733 0-1.013s0.733-0.28 1.013 0l4.559 4.559-0.108 0.108c-0.5 0.5-1.31 0.5-1.81 0l-3.654-3.654z"></path>
<path fill="#fff" style="fill: var(--color1, #fff)" d="M8.945 26.276l-1.013-1.013 7.092-7.092c0.28-0.28 0.733-0.28 1.013 0s0.28 0.733 0 1.013l-7.092 7.092z"></path>
</symbol>
<symbol id="icon-phone" viewBox="0 0 32 32">
<path fill="#fff" style="fill: var(--color1, #fff)" d="M4.601 6.628c0-1.471 0.584-2.882 1.625-3.922l1.082-1.082 5.413 5.413-0.364 0.468c-0.948 1.219-1.178 2.849-0.605 4.282 0.104 0.261 0.234 0.511 0.386 0.747l0.605 0.935c1.407 2.175 3.327 3.97 5.591 5.228l1.424 0.791c1.349 0.674 2.948 0.613 4.241-0.163l0.631-0.378 5.413 5.413-1.082 1.082c-1.040 1.040-2.451 1.625-3.922 1.625-2.738 0-5.414-0.81-7.692-2.329l-1.379-0.919-2.371-1.814c-1.48-1.132-2.803-2.455-3.935-3.935l-1.814-2.372-0.919-1.379c-1.519-2.278-2.329-4.954-2.329-7.692z"></path>
<path fill="#fff" style="fill: var(--color1, #fff)" d="M11.368 2.977c1.495 1.495 2.549 2.864 1.353 4.060s-3.377 0.953-4.872-0.541c-1.495-1.495-1.737-3.676-0.541-4.872s2.565-0.141 4.060 1.353z"></path>
<path fill="#fff" style="fill: var(--color1, #fff)" d="M28.961 20.029c1.495 1.495 2.278 3.135 1.083 4.331s-3.377 0.953-4.872-0.541-1.737-3.676-0.541-4.872c1.196-1.196 2.836-0.412 4.331 1.083z"></path>
</symbol>
<symbol id="icon-tools" viewBox="0 0 46 32">
<path fill="#fff" style="fill: var(--color1, #fff)" d="M5.612 23.476l12.734-21.774c0.172-0.293 0.55-0.395 0.845-0.226l0.985 0.561c0.295 0.168 0.395 0.543 0.224 0.836l-12.734 21.774-2.054-1.171z"></path>
<path fill="#fff" style="fill: var(--color1, #fff)" d="M7.231 23.047c1.702 0.97 2.152 3.345 1.006 5.305s-3.455 2.762-5.156 1.793-2.152-3.345-1.006-5.305c1.146-1.96 3.455-2.762 5.156-1.793zM3.911 28.725c1.021 0.582 2.406 0.1 3.094-1.075s0.418-2.601-0.603-3.183c-1.021-0.582-2.406-0.1-3.094 1.075s-0.418 2.601 0.603 3.183z"></path>
<path fill="#fff" style="fill: var(--color1, #fff)" d="M17.152 23.476l-12.734-21.774c-0.172-0.293-0.55-0.395-0.845-0.226l-0.985 0.561c-0.295 0.168-0.396 0.543-0.224 0.836l12.734 21.774 2.054-1.171z"></path>
<path fill="#fff" style="fill: var(--color1, #fff)" d="M15.532 23.047c-1.702 0.97-2.152 3.345-1.006 5.305s3.455 2.762 5.156 1.793c1.702-0.97 2.152-3.345 1.006-5.305s-3.455-2.762-5.156-1.793zM18.853 28.725c-1.021 0.582-2.406 0.1-3.094-1.075s-0.417-2.601 0.603-3.183 2.406-0.1 3.094 1.075c0.688 1.176 0.418 2.601-0.603 3.183z"></path>
<path fill="#333" style="fill: var(--color2, #333)" d="M11.859 15.805c0 0.323-0.265 0.585-0.593 0.585s-0.593-0.262-0.593-0.585c0-0.323 0.265-0.585 0.593-0.585s0.593 0.262 0.593 0.585z"></path>
<path fill="#fff" style="fill: var(--color1, #fff)" d="M24.79 23.775l14.218-14.036c0.242-0.239 0.634-0.239 0.876 0l0.801 0.791c0.242 0.239 0.242 0.626 0 0.865l-14.218 14.036c-0.242 0.239-0.634 0.239-0.876 0l-0.801-0.791c-0.242-0.239-0.242-0.626 0-0.865z"></path>
<path fill="#fff" style="fill: var(--color1, #fff)" d="M34.852 6.428c-0.242-0.239-0.242-0.626 0-0.865l0.945-0.933c0.178-0.176 0.446-0.228 0.677-0.131l2.392 0.99c0.074 0.031 0.142 0.075 0.198 0.131l6.65 6.565c0.242 0.239 0.242 0.626 0 0.865l-1.64 1.619c-0.242 0.239-0.634 0.239-0.876 0l-8.348-8.241z"></path>
</symbol>
</defs>
</svg>
