<svg width="26" height="20" fill="none" xmlns="http://www.w3.org/2000/svg"><path d="M24.03 0c.811 0 1.47.658 1.47 1.47v16.912a1.47 1.47 0 01-1.47 1.47V0zM.5 7.607a.735.735 0 011.47 0v12.246a1.47 1.47 0 01-1.47-1.47V7.606zm0-6.137C.5.659 1.158 0 1.97 0v3.818A1.47 1.47 0 01.5 2.348V1.47zm23.53 16.856H1.97v1.527h22.06z" fill="#fff"/><path d="M24.03 3.054l-.34.22a20 20 0 01-22.51-.498L.5 2.29c0 .958.463 1.857 1.243 2.414L3.727 6.12a15.405 15.405 0 0017.337.385L24.03 4.58V3.054zm0-3.054H1.97v1.527h22.06z" fill="#fff"/><path d="M11.53 9.927l12.5-7.721v1.47l-11.25 6.948a.82.82 0 01-1.25-.697z" fill="#fff"/><path d="M13 9.927L.5 2.206c0 .914.473 1.763 1.251 2.243l9.998 6.175A.82.82 0 0013 9.927z" fill="#fff"/></svg>