<svg viewBox="0 0 75 42" xmlns="http://www.w3.org/2000/svg"><path d="M1 1h51.226v31.97H21.183a7.484 7.484 0 00-13.334 0H1V1z" stroke="#fff" stroke-width="2"/><path d="M19.355 36.397a4.846 4.846 0 01-4.839 4.853 4.846 4.846 0 01-4.839-4.853 4.846 4.846 0 014.84-4.853 4.846 4.846 0 014.838 4.853zm-7.258 0a2.423 2.423 0 002.42 2.427 2.423 2.423 0 002.418-2.427 2.423 2.423 0 00-2.419-2.426 2.423 2.423 0 00-2.42 2.426zm58.064 0a4.846 4.846 0 01-4.838 4.853 4.846 4.846 0 01-4.84-4.853 4.846 4.846 0 014.84-4.853 4.846 4.846 0 014.838 4.853zm-7.258 0a2.423 2.423 0 002.42 2.427 2.423 2.423 0 002.419-2.427 2.423 2.423 0 00-2.42-2.426 2.423 2.423 0 00-2.419 2.426z" fill="#fff"/><path d="M56.645 5.853h8.142l4.541 6.833L74 19.714V32.97h-2.01a7.484 7.484 0 00-13.334 0h-2.01V5.853z" stroke="#fff" stroke-width="2"/><path d="M60 11a1 1 0 011-1h2.196a1 1 0 01.848.47l5 8a1 1 0 01-.848 1.53H61a1 1 0 01-1-1v-8zm-40.194 5.488a5.028 5.028 0 117.111-7.111l8.127 8.127-7.111 7.112-8.127-8.128z" fill="#fff"/><path d="M28.949 9.377a5.029 5.029 0 017.111 7.111l-8.127 8.128-7.111-7.112 8.127-8.127z" fill="#fff"/></svg>