<svg aria-hidden="true" style="position:absolute;width:0;height:0" xmlns="http://www.w3.org/2000/svg" overflow="hidden"><defs><symbol id="icon-car" viewBox="0 0 57 32"><path fill="none" stroke="var(--color1, #fff)" stroke-width="1.524" d="M.762.762h39.029v24.359H16.139a5.698 5.698 0 00-7.635-2.506 5.703 5.703 0 00-2.523 2.506H.763V.762z"/><path fill="var(--color1, #fff)" d="M14.746 27.731c0 2.042-1.651 3.698-3.687 3.698s-3.687-1.655-3.687-3.698 1.651-3.697 3.687-3.697a3.692 3.692 0 013.687 3.697zm-5.529 0c0 1.021.825 1.849 1.843 1.849s1.843-.828 1.843-1.849-.825-1.849-1.843-1.849-1.843.828-1.843 1.849zm44.239 0c0 2.042-1.651 3.698-3.687 3.698s-3.687-1.655-3.687-3.698c0-2.042 1.651-3.697 3.687-3.697s3.687 1.655 3.687 3.697zm-5.53 0c0 1.021.825 1.849 1.843 1.849s1.843-.828 1.843-1.849-.825-1.849-1.843-1.849-1.843.828-1.843 1.849z"/><path fill="none" stroke="var(--color1, #fff)" stroke-width="1.524" d="M43.158 4.459h6.203l7.02 10.561v10.1h-1.532a5.698 5.698 0 00-7.635-2.506 5.703 5.703 0 00-2.523 2.506h-1.532V4.459z"/><path fill="var(--color1, #fff)" d="M45.714 8.381c0-.421.341-.762.762-.762h1.673a.76.76 0 01.646.358l3.81 6.095a.762.762 0 01-.646 1.166h-5.483a.762.762 0 01-.762-.762V8.381zM15.09 12.563a3.831 3.831 0 015.418-5.418l6.192 6.192-5.418 5.418-6.192-6.192z"/><path fill="var(--color1, #fff)" d="M22.056 7.144a3.831 3.831 0 015.418 5.418l-6.192 6.192-5.418-5.418 6.192-6.192z"/></symbol><symbol id="icon-card" viewBox="0 0 48 32"><path fill="var(--color1, #fff)" d="M11.157 0H45.44A2.56 2.56 0 0148 2.56v18.522a2.56 2.56 0 01-2.56 2.56H11.157a2.56 2.56 0 01-2.56-2.56V2.56A2.56 2.56 0 0111.157 0z"/><path fill="var(--color2, #333)" d="M8.597 5.015H48v3.582H8.597V5.015zm30.09 13.254a1.791 1.791 0 11-3.582 0 1.791 1.791 0 013.582 0z"/><path fill="var(--color2, #333)" d="M41.552 18.269a1.791 1.791 0 11-3.582 0 1.791 1.791 0 013.582 0z"/><path fill="var(--color3, #7cd708)" d="M19.343 21.851c0 5.341-4.33 9.672-9.672 9.672s-9.672-4.33-9.672-9.672c0-5.341 4.33-9.672 9.672-9.672s9.672 4.33 9.672 9.672z"/><path fill="var(--color1, #fff)" d="M3.372 22.73a.716.716 0 111.013-1.013l4.559 4.559-.108.108c-.5.5-1.31.5-1.81 0L3.372 22.73zm5.573 3.546l-1.013-1.013 7.092-7.092a.716.716 0 111.013 1.013l-7.092 7.092z"/></symbol><symbol id="icon-phone" viewBox="0 0 32 32"><path fill="var(--color1, #fff)" d="M4.601 6.628c0-1.471.584-2.882 1.625-3.922l1.082-1.082 5.413 5.413-.364.468a4.347 4.347 0 00-.219 5.029l.605.935a15.796 15.796 0 005.591 5.228l1.424.791a4.41 4.41 0 004.241-.163l.631-.378 5.413 5.413-1.082 1.082a5.547 5.547 0 01-3.922 1.625c-2.738 0-5.414-.81-7.692-2.329l-1.379-.919-2.371-1.814a21.067 21.067 0 01-3.935-3.935l-1.814-2.372-.919-1.379A13.863 13.863 0 014.6 6.627z"/><path fill="var(--color1, #fff)" d="M11.368 2.977c1.495 1.495 2.549 2.864 1.353 4.06s-3.377.953-4.872-.541C6.354 5.001 6.112 2.82 7.308 1.624s2.565-.141 4.06 1.353zm17.593 17.052c1.495 1.495 2.278 3.135 1.083 4.331s-3.377.953-4.872-.541-1.737-3.676-.541-4.872c1.196-1.196 2.836-.412 4.331 1.083z"/></symbol><symbol id="icon-tools" viewBox="0 0 46 32"><path fill="var(--color1, #fff)" d="M5.612 23.476L18.346 1.702a.623.623 0 01.845-.226l.985.561a.608.608 0 01.224.836L7.666 24.647l-2.054-1.171z"/><path fill="var(--color1, #fff)" d="M7.231 23.047c1.702.97 2.152 3.345 1.006 5.305s-3.455 2.762-5.156 1.793S.929 26.8 2.075 24.84c1.146-1.96 3.455-2.762 5.156-1.793zm-3.32 5.678c1.021.582 2.406.1 3.094-1.075s.418-2.601-.603-3.183c-1.021-.582-2.406-.1-3.094 1.075s-.418 2.601.603 3.183zm13.241-5.249L4.418 1.702a.623.623 0 00-.845-.226l-.985.561a.607.607 0 00-.224.836l12.734 21.774 2.054-1.171z"/><path fill="var(--color1, #fff)" d="M15.532 23.047c-1.702.97-2.152 3.345-1.006 5.305s3.455 2.762 5.156 1.793c1.702-.97 2.152-3.345 1.006-5.305s-3.455-2.762-5.156-1.793zm3.321 5.678c-1.021.582-2.406.1-3.094-1.075s-.417-2.601.603-3.183 2.406-.1 3.094 1.075c.688 1.176.418 2.601-.603 3.183z"/><path fill="var(--color2, #333)" d="M11.859 15.805c0 .323-.265.585-.593.585s-.593-.262-.593-.585c0-.323.265-.585.593-.585s.593.262.593.585z"/><path fill="var(--color1, #fff)" d="M24.79 23.775L39.008 9.739a.625.625 0 01.876 0l.801.791a.606.606 0 010 .865L26.467 25.431a.625.625 0 01-.876 0l-.801-.791a.606.606 0 010-.865z"/><path fill="var(--color1, #fff)" d="M34.852 6.428a.606.606 0 010-.865l.945-.933a.622.622 0 01.677-.131l2.392.99a.616.616 0 01.198.131l6.65 6.565a.606.606 0 010 .865l-1.64 1.619a.625.625 0 01-.876 0L34.85 6.428z"/></symbol></defs></svg>