<svg viewBox="0 0 76 76" xmlns="http://www.w3.org/2000/svg"><path d="M10.928 15.742c0-3.494 1.388-6.845 3.858-9.315l2.57-2.57 12.857 12.856-.865 1.113a10.321 10.321 0 00-.519 11.943l1.437 2.22a37.52 37.52 0 0013.28 12.416l3.38 1.878A10.474 10.474 0 0057 45.896l1.498-.898 12.856 12.856-2.57 2.57a13.173 13.173 0 01-9.314 3.858 32.933 32.933 0 01-18.268-5.53l-3.274-2.184-5.633-4.307a49.996 49.996 0 01-9.345-9.345l-4.307-5.632-2.183-3.274a32.933 32.933 0 01-5.531-18.268z" fill="#fff"/><path d="M26.999 7.07c3.55 3.551 6.054 6.803 3.214 9.643-2.84 2.84-8.02 2.265-11.57-1.286-3.551-3.55-4.127-8.73-1.286-11.57 2.84-2.84 6.092-.336 9.642 3.214zm41.783 40.5c3.55 3.55 5.412 7.444 2.572 10.284-2.84 2.84-8.02 2.265-11.571-1.285-3.55-3.55-4.126-8.731-1.286-11.571 2.84-2.84 6.735-.98 10.285 2.571z" fill="#fff"/></svg>